<svg width="800" height="500" viewBox="0 0 800 500" fill="none" xmlns="http://www.w3.org/2000/svg">
  <rect width="800" height="500" rx="40" fill="#FFF7ED"/>
  <rect x="42" y="42" width="716" height="416" rx="32" fill="url(#paint0_linear)"/>
  <rect x="84" y="88" width="292" height="280" rx="24" fill="#111827"/>
  <rect x="108" y="122" width="244" height="18" rx="9" fill="#F59E0B"/>
  <rect x="108" y="158" width="196" height="12" rx="6" fill="#374151"/>
  <rect x="108" y="186" width="224" height="12" rx="6" fill="#374151"/>
  <rect x="108" y="232" width="108" height="30" rx="15" fill="#10B981"/>
  <rect x="228" y="232" width="108" height="30" rx="15" fill="#F97316"/>
  <rect x="418" y="98" width="300" height="108" rx="24" fill="#FFFFFF" fill-opacity="0.92"/>
  <rect x="442" y="128" width="128" height="14" rx="7" fill="#0F172A"/>
  <rect x="442" y="154" width="236" height="10" rx="5" fill="#CBD5E1"/>
  <rect x="442" y="175" width="212" height="10" rx="5" fill="#CBD5E1"/>
  <rect x="418" y="224" width="300" height="170" rx="24" fill="#0F172A"/>
  <path d="M466 274H670" stroke="#38BDF8" stroke-width="12" stroke-linecap="round"/>
  <path d="M466 308H628" stroke="#94A3B8" stroke-width="10" stroke-linecap="round"/>
  <path d="M466 340H652" stroke="#94A3B8" stroke-width="10" stroke-linecap="round"/>
  <circle cx="626" cy="122" r="46" fill="#F59E0B"/>
  <path d="M609 122L621 134L646 109" stroke="#111827" stroke-width="12" stroke-linecap="round" stroke-linejoin="round"/>
  <defs>
    <linearGradient id="paint0_linear" x1="70" y1="62" x2="724" y2="438" gradientUnits="userSpaceOnUse">
      <stop stop-color="#FFE7C2"/>
      <stop offset="1" stop-color="#DBEAFE"/>
    </linearGradient>
  </defs>
</svg>
